<?xml version="1.0" encoding="utf-8"?>
<!-- Generator: Adobe Illustrator 26.3.1, SVG Export Plug-In . SVG Version: 6.00 Build 0)  -->
<svg version="1.1" id="Livello_1" xmlns="http://www.w3.org/2000/svg" xmlns:xlink="http://www.w3.org/1999/xlink" x="0px" y="0px"
	 viewBox="0 0 282.11 180.47" style="enable-background:new 0 0 282.11 180.47;" xml:space="preserve">
<style type="text/css">
	.st0{fill:#E95C0C;}
	.st1{fill:#009FE3;}
</style>
<g>
	<path class="st0" d="M79.79,127.44c-0.27-1.4-0.53-3.5-0.25-6c0.2-1.81,0.56-4.93,2.68-7.91c1.35-1.89,3.19-3.43,5.53-4.61
		c6.09-3.06,12.55-3.92,19.08-1.53c5.68,2.08,8.91,6.38,9.72,12.33c0.9,6.57,1.58,13.17,2.36,19.76c0.19,1.6,0.39,3.2,0.58,4.8
		c-3.65-0.51-6.71,0.72-9.35,3.16c-0.53,0.49-0.91,0.61-1.51,0.11c-0.69-0.57-1.49-1.03-2.24-1.53c-1.03-1.36-0.83-2.96-0.88-4.51
		c-0.02-0.48,0.18-0.96,0.12-1.45c0.33-2.44,0.01-4.8-1.02-7.04c-0.73-2.86-0.87-5.81-1.28-8.72c-0.11-0.8-0.12-1.61-0.3-2.4
		c-0.23-1.07-0.81-1.81-1.81-2.16c-2.42-0.86-4.73-0.48-6.83,0.92c-0.33,0.22-0.58,0.47-0.77,0.77c-0.32,0.51-0.41,1.06-0.39,1.99
		c0.02,0.76,0.12,1.86,0.49,3.18c-4.5-0.12-6.46,1.06-7.4,2.23c-2.78,3.42-3.18,4.47-3.18,4.47c-0.51,1.23-1.17,1.58-2.35,1.27
		C80.47,132.19,80.13,129.82,79.79,127.44z"/>
	<path class="st0" d="M128.21,150.06c-0.39-3.38-0.77-6.76-1.17-10.14c-0.46-3.9-0.93-7.81-1.39-11.71
		c-0.47-3.94-0.93-7.88-1.4-11.81c-0.45-3.76-0.88-7.53-1.35-11.29c-0.09-0.76,0.15-1.04,0.93-1.12c4.71-0.52,9.42-1.09,14.13-1.64
		c3.7-0.43,7.4-0.89,11.1-1.27c0.6-0.06,1.03-0.3,1.59-0.81c0.57,4.85,1.12,9.53,1.7,14.43c-0.83-0.65-1.53-0.53-2.27-0.43
		c-3.27,0.42-6.55,0.77-9.83,1.15c-0.35,0.04-0.69,0.1-1.04,0.15c-1.62,0.26-1.66,0.27-1.5,1.86c0.26,2.55,0.59,5.09,0.88,7.64
		c0.08,0.7,0.31,1.04,1.13,0.94c3.66-0.46,7.32-0.88,10.98-1.28c0.49-0.05,0.59-0.59,1.12-0.69c0.55,4.66,1.1,9.31,1.66,14.03
		c-1.74-0.86-3.39-0.04-5.05,0.05c-2.24,0.13-4.46,0.51-6.69,0.75c-1.37,0.14-1.43,0.13-1.28,1.48c0.33,3.04,0.71,6.07,1.06,9.1
		c0.38,0.43,0.17,0.86-0.01,1.27c-1.51,3.58-1.67,7.18-0.19,10.82c0.15,0.38,0.36,0.79-0.07,1.15c-1.65,0.18-3.3,0.35-4.95,0.53
		c-0.44-0.08-0.61-0.44-0.78-0.79c-1.09-2.26-2.81-3.75-5.29-4.3c-0.81-0.18-1.22-0.69-1.2-1.5c0.05-1.89-0.27-3.71-0.94-5.47
		C127.95,150.76,127.86,150.38,128.21,150.06z"/>
	<path class="st1" d="M128.21,150.06c0.88,2.19,1.44,4.45,1.24,6.83c-0.04,0.49,0.19,0.69,0.64,0.76c3.24,0.53,5.16,2.54,6.19,5.54
		c0.89,3.96-1.23,7.94-4.76,8.95c-1.85,0.53-3.71,0.34-5.51-0.16c-0.75-0.21-1.03-0.03-1.35,0.6c-2.33,4.59-6.85,5.68-11.08,4.1
		c-2.5-0.93-3.86-2.92-4.68-5.36c-0.29,0-0.39,0.25-0.53,0.42c-5.72,6.5-15.9,6.73-22.36,1.32c-0.24-0.2-0.49-0.39-0.73-0.59
		c-2.04-2.08-3.61-4.46-4.49-7.27c-0.28-0.91-1.06-1-1.88-0.99c-3.74,0.01-7.13-1-10.01-3.48c-1.32-1.14-2.44-2.47-3.21-4.02
		c-0.48-0.96-0.99-0.8-1.71-0.49c-4.86,2.07-9.87-0.07-12.36-3.55c-4.39-6.14-0.79-14.65,6.65-15.75c3.77-0.56,6.66,0.78,9.02,3.78
		c-0.59-0.1-0.93-0.46-1.3-0.74c-4.21-3.2-9.94-2.57-12.81,1.54c-1.97,2.82-2.2,5.93-0.54,8.96c1.63,2.96,4.28,4.39,7.68,4.24
		c1.5-0.07,2.86-0.66,4.11-1.48c0.66-0.43,1.31-0.89,2.11-0.32c0.32,0.22,0.44,0,0.55-0.23c1.04-2.2,2.74-3.39,5.19-3.52
		c0.63-0.03,0.93-0.58,1.13-1.13c1.61-4.34,4.95-6.53,9.31-7.22c5.15-0.81,10.63,3.07,11.85,8.19c0.11,0.47,0.19,0.94,0.24,1.43
		c0.12,1.25,0.68,2.16,1.74,3.02c2.17,1.76,2.95,4.24,2.21,6.97c-0.69,2.54-2.44,4.25-5.02,4.8c-1.17,0.25-2.5,0.34-3.7-0.47
		c0.79-0.12,1.5-0.23,2.2-0.34c0.39-0.59,1.09-0.61,1.64-0.88c3.23-1.57,3.94-5.65,1.37-7.99c-0.29-0.27-0.61-0.49-0.96-0.64
		c-1.39-0.56-1.96-1.68-2.04-3.07c-0.34-5.96-6.18-8.92-10.8-7.85c-2.96,0.69-4.91,2.62-6.05,5.4c-0.74,1.8-0.93,1.97-2.88,1.97
		c-1.6,0.01-2.88,0.57-3.71,1.99c-0.62,1.07-0.52,2.03,0.24,3.02c2.08,2.73,4.79,4.4,8.16,5c1.05,0.19,2.11,0.08,3.16,0.09
		c1.81,0.03,2.27,0.35,2.73,2.13c0.6,2.31,1.49,4.46,3.05,6.3c2.23,2.63,5.09,4.15,8.41,4.89c4.81,1.07,8.92-0.56,12.72-3.34
		c0.28-0.21,0.57-0.42,0.87-0.59c0.55-0.32,1.02-0.2,1.4,0.28c0.3,0.39,0.55,0.82,0.81,1.24c1.62,2.59,4.01,3.73,6.98,3.42
		c2.86-0.29,4.87-1.86,5.88-4.62c0.68-1.88,1.23-2.1,2.97-1.22c3.1,1.56,6.65,0.08,7.65-3.2c0.77-2.53-0.98-5.67-3.55-6.31
		c-0.71-0.18-1.44-0.33-2.17-0.42c-1.2-0.16-1.62-0.71-1.53-1.94c0.16-2.15,0.18-4.27-0.92-6.27c-1.36-2.47-3.42-3.84-6.17-4.26
		c-3.29-0.5-5.91,0.72-8.06,3.14c-0.36,0.41-0.71,0.78-1.27,0.85c-0.84,0.48-1.47,0.13-2-0.54c-1.6-2.05-3.67-3.44-6.04-4.45
		c-1.83-0.78-1.9-1.11-0.71-2.77c2.82-3.95,2.74-8.59-0.26-12.26c-2.33-2.85-6.23-4.26-10.22-3.04c-2.66,1.24-3.75,2.25-4.25,2.96
		c-0.62,0.88-1.29,1.7-1.29,1.7c-1.22,1.78-1.35,2.57-2.19,2.93c-0.68,0.3-1.22,0.04-2.24-0.15c-4.39-0.84-8.24,0.41-11.59,3.31
		c-0.52,0.45-1.01,0.92-1.69,1.55c1.37-2.8,4.99-5.29,8.26-5.93c1.6-0.31,3.21-0.26,4.82-0.27c1.48-0.35,1.92-1.62,2.56-2.77
		c1.92-3.47,4.96-5.35,8.81-6.01c0.32-0.06,0.63,0.01,0.95,0.02c4.53-0.45,9.16,2.03,11.3,6.02c0.18,0.34,0.39,0.67,0.62,0.98
		c0.98,2.31,1.49,4.68,1.03,7.2c-0.53,1.25-0.68,2.64-1.32,3.86c-0.15,0.28-0.09,0.55,0.2,0.72c0.6,0.35,1.03,0.96,1.73,1.16
		c0.56,0.36,1.17,0.66,1.68,1.09c0.69,0.58,1.25,0.51,1.93-0.11c2.17-1.97,4.75-2.96,7.68-3.02c0.59-0.01,1.12,0.11,1.51,0.59
		C123.12,145.12,126.15,146.87,128.21,150.06z"/>
	<path class="st1" d="M141.24,162.67c-0.68-1.9-1.37-3.79-1.44-5.86c-0.08-2.62,0.69-5.03,1.71-7.38c2.89-4.54,7.33-6.41,12.39-7.19
		c0.59-0.09,0.74-0.36,0.78-0.88c0.13-1.57,0.19-3.16,0.46-4.71c0.66-3.91,2.63-7.05,5.83-9.41c0.32-0.68,0.91-1.04,1.57-1.31
		c4.29-1.77,8.61-2.13,12.97-0.22c2.1,0.93,3.81,2.39,5.21,4.16c0.94,1.2,1.89,1.79,3.4,1.15c0.74-0.32,1.56-0.39,2.35-0.55
		c0.53-0.11,1.05-0.14,1.49,0.26c1.75,0.1,3.51,0.1,5.22,0.58c4.11,1.15,7.35,3.5,9.63,7.08c0.78,1.23,1.74,2,3.14,2.45
		c4.87,1.55,7.72,6.22,6.78,10.97c-0.08,0.43-0.09,0.93-0.69,1.18c-0.2-0.47-0.09-0.96-0.1-1.42c-0.11-4.95-2.93-8.19-7.83-8.92
		c-1.13-0.17-1.92-0.71-2.54-1.67c-3.3-5.12-7.94-7.49-14.06-6.76c-1.83,0.22-3.51,0.92-5.14,1.74c-1.67,0.84-2.19,0.69-3.18-0.91
		c-1.78-2.89-4.1-5.06-7.57-5.76c-5.39-1.1-11.33,2.88-12.37,8.3c-0.37,1.9-0.3,3.78,0.25,5.62c0.93,3.16-0.48,3.72-3.19,3.19
		c-1.89-0.37-3.74-0.48-5.62,0.05c-6.95,1.97-10.16,10.28-6.31,16.36c3.1,4.91,7.55,6.59,13.49,5.11c1.01-0.25,2.01-0.5,3.05-0.67
		c-1.45,1.56-3.28,2.34-5.32,2.69c-3.98,0.68-7.5-0.45-10.71-2.78C143.43,165.86,142.31,164.29,141.24,162.67z"/>
	<path class="st1" d="M170.32,159.32c-1.17,0.55-2.01,1.51-2.84,2.45c-1.02,1.14-1.98,2.33-3.13,3.68c0.1-1.6,0.53-2.84,1.16-4.03
		c1.42-2.67,3.59-4.62,6.07-6.26c2.12-1.04,4.32-1.77,6.71-1.98c5.5-0.47,9.93,1.6,13.66,5.46c1.18,1.22,2.21,2.56,3.08,4.01
		c0.35,0.6,0.62,0.61,1.19,0.27c4.89-2.98,9.98-3.28,15.24-1.05c1.27,0.54,2.41,1.27,3.29,2.62c-1.65-0.41-3.13-0.79-4.62-1.13
		c-5.31-1.21-9.86,0.08-13.66,4.04c-2.31,2.4-3.37,2.16-4.43-1c-2.48-7.42-9.85-10.07-14.36-9.53c-0.22,0.18-0.43,0.35-0.73,0.39
		C174.61,157.55,172.5,158.56,170.32,159.32z"/>
	<path class="st0" d="M170.32,159.32c2.18-1.64,4.63-2.43,7.35-2.45c0.12,0.51,0.24,1.01,0.75,1.5c-1.1,0.14-2.2,0.27-3.3,0.41
		C173.52,158.96,171.92,159.14,170.32,159.32z"/>
	<path class="st1" d="M197.06,91.88c0.7-0.73,0.35-1.53,0.26-2.3c-0.28-2.38-0.57-4.75-0.82-7.13c-0.05-0.49-0.17-0.66-0.69-0.65
		c-1.86,0.07-3.73,0.05-5.56-0.25c-0.2,0.37,0.06,0.58,0.18,0.8c1.37,2.73,2.76,5.46,4.14,8.18c0.2,0.4,0.39,0.72-0.18,1.01
		c-5.6,2.87-11.29,3.64-17.04,0.54c-2.43-1.31-4.19-3.42-5.62-5.76c-2.29-3.75-4.57-7.5-6.83-11.27c-0.31-0.52-0.64-0.63-1.2-0.5
		c-0.75,0.16-1.74-0.12-2.2,0.42c-0.44,0.51,0.03,1.41,0.11,2.14c0.67,5.8,1.36,11.6,2.04,17.4c0.05,0.47,0.09,0.92,0.6,1.34
		c-4.5,0.53-9.01,1.07-13.75,1.63c0.72-0.61,0.64-1.2,0.56-1.85c-1.52-12.86-3.02-25.72-4.54-38.58c-0.07-0.61,0.2-1.47-1.13-1.26
		c-6.33,1-11.6-2.67-13.09-8.99c-1.64-6.98,4.22-14.33,11.36-14.23c2.22,0.03,4.27,0.69,6.3,1.88c-1.12,0.73-2.24,0.51-3.3,0.38
		c-2.32-0.28-4.39,0.3-6.28,1.62c-3.3,2.32-4.7,6.66-3.49,10.83c1.06,3.67,4.41,6.35,8.17,6.62c0.9,0.06,1.1-0.11,0.97-1.06
		c-0.52-3.76-0.93-7.54-1.34-11.32c-0.06-0.57-0.2-1.01-0.99-1.45c4.78-0.56,9.25-1.09,13.9-1.64c-0.78,0.97-0.34,1.93-0.23,2.85
		c0.74,6.4,1.52,12.79,2.25,19.19c0.08,0.72,0.31,0.76,0.97,0.77c1.43,0.02,1.91-0.71,2.28-1.98c2.01-6.88,4.12-13.72,6.21-20.58
		c0.16-0.54,0.32-1.03-0.31-1.55c4.83-0.57,9.65-1.14,14.41-1.7c-1.57,4.52-3.12,8.98-4.66,13.45c-1.81,5.24-3.61,10.49-5.46,15.73
		c-0.28,0.78-0.19,1.35,0.28,2.03c1.79,2.61,3.53,5.26,5.27,7.9c0.33,0.49,0.55,0.84,1.13,0.23c0.84-0.89,1.79-0.75,2.78-0.18
		c3.29,1.91,6.8,3.17,10.57,3.71c3.1,0.45,3.02,0.51,2.64-2.54c-0.72-5.69-1.35-11.39-2.02-17.09c-0.74-6.26-1.48-12.51-2.21-18.77
		c-0.19-1.57-0.35-3.15-0.55-4.72c-0.07-0.52,0.04-0.72,0.62-0.78c7.83-0.89,15.66-1.81,23.49-2.75c0.73-0.09,1.57,0.06,2.12-0.91
		c0.55,4.64,1.07,9.1,1.62,13.79c-0.64-0.55-1.17-0.5-1.74-0.43c-3.77,0.47-7.55,0.92-11.32,1.31c-0.73,0.08-0.87,0.34-0.78,0.98
		c0.36,2.79,0.7,5.59,1.01,8.38c0.06,0.55,0.28,0.63,0.74,0.57c3.67-0.44,7.34-0.87,11.01-1.28c0.43-0.05,0.57-0.47,1.05-0.59
		c0.53,4.53,1.06,9.02,1.62,13.73c-0.62-0.76-1.28-0.65-1.94-0.57c-3.35,0.41-6.71,0.82-10.06,1.19c-0.68,0.07-0.88,0.22-0.77,0.95
		c0.34,2.4,0.58,4.81,0.87,7.34c2.25-0.91,4.23-2.07,6.12-3.37c3.17-2.17,2.39-1.96,5.18,0.03c3.54,2.53,7.38,3.48,11.68,2.32
		c2.1-0.57,2.59-0.23,3.15,1.89c1.15,4.38,3.78,7.25,8.35,8.03c2.89,0.49,5.41-0.45,7.62-2.32c0.78-0.66,1.48-1.41,2.1-2.22
		c0.92-1.21,2.01-2.24,3.25-3.14c5.17-3.77,4.52-12.08-1.15-15.06c-0.22-0.11-0.43-0.25-0.65-0.34c-0.94-0.39-1.15-1.04-0.74-1.95
		c0.81-1.83,1.17-3.73,1.06-5.75c-0.34-6.22-6.92-12.15-14.48-8.7c-2.62,1.19-2.76,1.1-3.33-1.74c-0.42-2.08-1.53-3.67-3.43-4.69
		c-1.74-0.93-1.91-1.35-1.41-3.3c1.08-4.25-1.55-8.26-5.82-8.85c-1.26-0.17-2.44,0.14-3.6,0.6c-1.68,0.66-2.34,0.46-3.24-1.06
		c-0.96-1.63-2.39-2.63-4.15-3.22c-2.29-0.76-2.59-1.41-1.7-3.67c1.99-5.07-0.61-10.21-5.78-11.45c-3.72-0.89-7.68,1.3-9.25,5.13
		c-0.2,0.49-0.32,1.01-0.53,1.49c-0.58,1.35-1.51,1.67-2.8,0.99c-0.25-0.13-0.49-0.28-0.72-0.45c-4.73-3.57-11.98-0.91-13.3,5.28
		c-0.42,1.99-0.61,2.09-2.62,2.01c-2.63-0.1-3.89,0.68-4.95,3.07c-0.07,0.16-0.13,0.32-0.2,0.49c-0.61,1.39-0.92,1.51-2.35,0.9
		c-0.55-0.23-1.1-0.47-1.64-0.72c-4.69-2.24-9.03-1.23-13.16,1.45c-1.71,1.11-2.99,2.66-4.01,4.42c-0.44,0.76-0.87,1.53-1.84,2.2
		c0.97-2.43,2.1-4.48,3.57-6.35c2.83-3.6,6.65-4.91,11.09-4.74c1.8,0.07,3.58,0.27,5.33,0.68c0.57,0.13,0.89,0.03,1.18-0.5
		c1.19-2.17,3-3.52,5.46-3.9c0.96-0.15,1.34-0.77,1.64-1.55c1.3-3.34,3.49-5.83,6.89-7.14c2.55-0.99,5.16-1.06,7.75-0.18
		c0.94,0.32,1.54,0.12,2.15-0.64c0.96-1.21,1.98-2.39,3.16-3.41c3.82-3.28,8.16-3.89,12.69-1.96c4.47,1.9,6.94,5.46,7.29,10.38
		c0.08,1.2-0.03,2.39-0.27,3.57c-0.15,0.77,0.08,1.35,0.71,1.84c0.64,0.5,1.26,1.03,1.79,1.63c1.01,1.14,2.22,1.48,3.7,1.3
		c5.34-0.67,9.96,2.81,10.95,8.2c0.23,1.22,0.27,2.45,0.14,3.68c-0.08,0.78,0.09,1.41,0.75,1.95c1.48,1.21,2.48,2.8,3.03,4.61
		c0.24,0.79,0.52,0.82,1.25,0.65c7.14-1.68,13.47,2.02,15.2,8.83c0.77,3.01,0.07,5.78-1.37,8.43c-0.08,0.15-0.16,0.31-0.28,0.56
		c1.46,0.37,2.9,0.63,4.21,1.28c3.07,1.52,5.35,3.72,5.64,7.32c0.44,5.62-3.7,10.04-8.73,10.31c-0.57,0.03-0.85,0.12-0.99,0.75
		c-1.16,5.13-6,8.79-11.28,8.65s-10.29-3.43-11.59-8.49c-0.16-0.64-0.57-1.08-1.25-1.09c-2.01-0.03-3.96-0.4-5.98-1.12
		c0.44,3.8,0.88,7.49,1.32,11.26c-1.26-0.83-2.48-0.23-3.65-0.1c-8.04,0.9-16.08,1.88-24.11,2.83
		C197.37,91.93,197.26,91.9,197.06,91.88z"/>
	<path class="st0" d="M187.96,130.73c-1.49,0.23-3,0.41-4.43,0.93c-1.12,0.4-1.99,0.08-2.68-0.86c-0.84-1.14-1.77-2.2-2.91-3.04
		c-5.09-3.78-10.44-3.55-15.94-1.04c-0.35,0.16-0.69,0.35-1.03,0.52c-0.29-2.19-0.59-4.38-0.85-6.57c-0.39-3.28-0.76-6.55-1.14-9.83
		c-0.38-3.24-0.77-6.48-1.19-9.72c-0.1-0.75,0.13-1.05,0.91-1.14c6.56-0.75,13.12-1.54,19.68-2.31c1.85-0.22,3.7-0.45,5.55-0.62
		c0.6-0.05,1.08-0.22,1.59-1c0.59,4.99,1.14,9.69,1.72,14.63c-0.85-0.67-1.54-0.54-2.29-0.45c-3.27,0.42-6.55,0.77-9.83,1.15
		c-0.31,0.04-0.63,0.08-0.94,0.13c-1.75,0.3-1.77,0.31-1.59,2c0.27,2.48,0.57,4.95,0.86,7.43c0.08,0.68,0.24,1.15,1.15,1.03
		c3.65-0.47,7.32-0.88,10.98-1.28c0.49-0.05,0.57-0.6,1.1-0.69C187.11,123.59,187.54,127.16,187.96,130.73z"/>
	<path class="st0" d="M189.39,109.25c-0.28,0.04-0.66,0.07-0.74-0.1c-0.25-0.49,2.37-2.24,2.96-2.63c0,0,1.4-0.94,3.96-1.76
		c0.08-0.02,0.37-0.15,0.72-0.07c0.4,0.09,0.95,0.14,1.03,0.6c0.05,0.28-0.53,0.52-0.74,0.61
		C195.42,106.38,192.87,107.59,189.39,109.25z"/>
	<path class="st0" d="M221.37,144.71c0.39,0.03,0.69,0.03,0.82,0.34c0.11,0.26-0.05,0.49-0.22,0.66c-1.75,1.73-3.86,2.9-6.09,3.88
		c-0.27,0.12-0.56,0.01-0.76-0.23c-0.19-0.22-0.14-0.51,0.02-0.69C216.9,146.81,218.95,145.39,221.37,144.71z"/>
	<path class="st0" d="M223.03,150.18c-2.23,2.19-4.92,3.67-7.68,5.06C217.45,152.86,219.96,151.1,223.03,150.18z"/>
	<path class="st0" d="M201.7,108.81c0.25,0.04,0.51,0.04,0.73,0.12c0.21,0.08,0.53,0.04,0.59,0.35c0.08,0.39-0.27,0.45-0.5,0.57
		c-1.13,0.55-2.27,1.07-3.41,1.61c-0.48,0.23-1.06,0.33-1.3-0.18c-0.2-0.43,0.22-0.83,0.65-1.05
		C199.51,109.67,200.47,108.92,201.7,108.81z"/>
	<path class="st0" d="M207.88,113.28c-0.21,0.41-0.46,0.68-0.63,0.85c-0.76,0.72-1.77,0.94-2.45,0.76c-0.1-0.03-0.33-0.09-0.37-0.24
		c-0.05-0.18,0.15-0.38,0.37-0.58c0.91-0.83,1.63-1.12,2.42-1.48c0.2-0.09,0.37-0.15,0.5-0.08
		C207.97,112.66,207.89,113.21,207.88,113.28z"/>
	<path class="st0" d="M217.38,143.44c-0.19,0.02-0.21-0.15-0.28-0.26c-0.19-0.27-0.17-0.57,0.06-0.76c0.94-0.78,1.93-1.49,3-2.07
		c0.15-0.08,0.42-0.19,0.55,0.07c0.09,0.18-0.05,0.36-0.17,0.46c-0.99,0.84-1.98,1.66-2.98,2.48
		C217.52,143.4,217.45,143.41,217.38,143.44z"/>
	<path class="st0" d="M262.06,97.22c-4.52-0.14-9.13-0.21-13.82-0.21c-17.2,0.01-33.43,1.04-48.55,2.75c0,0-1.05,0.06-1.98,0.89
		c-0.42,0.38-0.4,0.6,0.08,0.93c5.73,4.04,11,8.65,16.6,12.86c1.37,1.03,1.77,2.37,1.43,4.01c-3.3,15.79-3.46,16.67-3.46,16.67
		c-0.25,0.97-0.81,3.15-0.2,3.46c0.09,0.05,0.19,0.05,0.34,0.01c0.7-0.2,1.42-0.3,2.03-0.81c2.68-2.22,5.39-4.41,8.09-6.61
		c0.94-0.76,0.96-0.76,1.33,0.41c0.05,0.17,0.12,0.33,0.16,0.5c0.65,3.09,1.27,6.18,1.93,9.26c0.46,2.16,0.98,4.3,1.46,6.46
		c0.12,0.53,0.39,0.95,0.89,1.08c0.52,0.13,0.78-0.36,1.06-0.71c0.2-0.25,0.37-0.51,0.55-0.77c5.97-8.78,11.99-17.53,17.9-26.36
		c3.91-5.85,8.25-11.39,12.09-17.29c1-1.53,2.01-3.06,2.66-4.78C262.94,98.27,263.13,97.5,262.06,97.22z M222.43,129.32
		c-1.34,2.2-5.74,4.89-6.12,5.12c0.66-0.95,4.72-6.82,5.61-7.77c0.12-0.13,0.41-0.44,0.67-0.36c0.2,0.05,0.31,0.32,0.4,0.69
		C223.23,128.05,222.58,129.09,222.43,129.32z M220.08,125.68c-1.55,2.31-3.09,4.62-4.65,6.92c-0.16,0.23-0.27,0.69-0.67,0.49
		c-0.27-0.13-0.14-0.52-0.09-0.78c0.86-4.72,1.74-9.44,2.62-14.16c0.25-1.36,1.05-2.22,2.32-2.76c5.81-2.46,11.71-4.65,17.65-6.76
		c3.52-1.25,6.77-2.31,10.86-3.78c2.2-0.79,4-1.46,5.2-1.91c-2.8,1.89-5,3.38-6.24,4.23c-12.02,8.16-16.66,10.81-20.09,13.03
		c-0.71,0.46-1.43,0.88-2.21,1.23C222.76,122.32,221.3,123.86,220.08,125.68z M254.16,108.4c-3.98,5.96-22.58,33.86-23.47,35.16
		c-0.46,0.67-0.75,1.08-0.85,1.22c-0.08,0.12-0.14,0.25-0.24,0.35c-0.22,0.21-0.26,0.69-0.63,0.62c-0.32-0.07-0.34-0.48-0.4-0.79
		c-0.55-2.82-1.11-5.64-1.63-8.46c-0.68-3.65-1.21-7.33-2.18-10.92c-0.17-0.62-0.16-1.13-0.01-1.57c0.3-0.88,1.08-1.36,1.33-1.52
		c0.45-0.27,5.57-3.61,15.82-10.27c2.86-1.86,9.76-6.67,11.98-7.82c0.15-0.08,1.18-0.52,2.52-1.22c0.87-0.46,1.56-0.85,2-1.1
		C256.52,104.87,255.03,107.09,254.16,108.4z M256.74,99.49c-12.25,4.97-24.83,9.1-37.01,14.25c-1.48,0.62-2.76,0.47-4.03-0.51
		c-4.61-3.58-9.25-7.13-13.88-10.68c-0.21-0.16-0.57-0.26-0.44-0.62c0.03-0.07,0.06-0.12,0.1-0.16c0.19-0.17,0.63-0.11,0.63-0.11
		c0.13,0.02,5.63-0.36,16.62-1.12c1.04-0.07,3.08-0.22,6.31-0.43c0.74-0.05,1.48-0.09,2.21-0.13c5.23-0.29,10.47-0.58,15.71-0.8
		c5.97-0.25,8.18-0.17,14.14-0.54c0.9-0.06,1.65-0.11,2.15-0.14C258.66,98.71,257.79,99.06,256.74,99.49z"/>
	<path class="st1" d="M96.46,57.27c1.64-1.93-1.42-11.33-3.22-11.09c-1.78,0.23-3.57,0.41-5.59,0.63c0.45-0.69,0.7-1.21,1.07-1.61
		c2.35-2.55,2.19-5.53,1.32-8.52c-1.51-5.18-6.54-9.09-12.02-9.4c-2.42-0.14-4.89-0.29-7.2,0.65c-3.54,1.42-5.97,4.01-7.41,7.52
		c-0.25,0.6-0.48,0.81-1.19,0.74c-1.89-0.18-3.81-0.26-5.69,0.04c-4.41,0.71-7.33,3.53-9.3,7.25c-2.13,4.02-1.87,8.29-0.18,12.44
		c0.36,0.88,0.48,1.34-0.37,2.02c-2.33,1.86-4.07,4.17-4.67,7.19c-0.11,0.55-0.23,1.1-0.36,1.64c-0.07,0.3-0.22,0.51-0.6,0.34
		c-2.03-0.92-4.19-0.8-6.33-0.77c-6.14,0.1-10.48,3.2-13.48,8.36c-1.45,2.5-1.5,5.29-1.53,8.09c-0.06,6.57,3.3,10.89,8.87,13.8
		c1.38,0.72,2.93,0.93,4.49,1.33c-0.2,0.48-0.37,0.9-0.55,1.31c-2.07,4.62-2.39,9.42-0.54,14.06c2.19,5.45,6.5,8.6,12.36,9.49
		c1.68,0.26,1.73,0.21,1.69,1.94c-0.08,3.46,1.61,5.94,4.29,7.9c2.06,1.51,4.43,1.56,6.85,1.61c3.77,0.07,6.49-1.73,8.67-4.6
		c0.24-0.31,0.55-1.11,0.68-2.17c0.38-3.1-1.7-5.55-2.57-6.57c-1.1-1.29-1.75-1.56-4.23-3.38c-3.41-2.51-5.15-3.73-6.13-4.98
		c-0.59-0.74-3.77-4.91-3.47-10.61c0.21-4.13,2.11-7.7,5.26-10.36c2.05-1.73,2.71-3.6,2.81-6.25c0.27-7.17,3.47-12.68,10.19-15.85
		c1.8-0.85,3.86-0.94,5.55-2.21c0.06,0.36,0.11,0.64,0.14,0.91c0.38,3.28,0.75,6.57,1.14,9.85c0.96,8.11,1.95,16.21,2.87,24.32
		c0.14,1.23,0.65,2.48-0.06,3.82c4.6-0.54,9.04-1.07,13.74-1.62c-0.83-0.48-0.86-1.12-0.93-1.74c-0.37-3.29-0.74-6.57-1.13-9.86
		c-1.3-10.97-2.6-21.94-3.92-32.91c-0.04-0.3-0.02-0.5,0.08-0.64c0.17-0.22,0.49-0.22,0.59-0.23C90.87,59,95.14,58.82,96.46,57.27z
		 M86.81,41.51c-0.66,1.76-2.33,3.51-2.52,4.12c-0.12,0.38-0.49,0.36-0.79,0.39c-5.1,0.59-10.19,1.16-15.28,1.75
		c-3,0.34-5.99,0.7-8.99,1.06c-0.76,0.09-1.05,0.55-1.05,1.31c-0.01,1.87,0.36,3.7,0.54,5.56c0.2,2.13,0.55,4.24,0.75,6.37
		c0.08,0.86,0.44,1.21,1.26,1.13c2.2-0.23,4.39-0.48,6.59-0.73c0.91-0.1,1.81-0.2,2.72-0.33c0.59-0.08,0.86,0.02,0.9,0.74
		c0.09,1.9,0.14,1.9-1.72,2.45C61.31,67.68,55.86,74.24,55,82.4c-0.12,1.16-0.18,2.32-0.13,3.48c0.04,0.89-0.29,1.51-0.96,2.09
		c-0.93,0.8-5.47,6.92-6.75,10.53c-2.16,6.08,2.19,15.54,8.33,20.08c3.33,2.47,7.54,3.74,7.69,6.75c0.08,1.61-1.03,3.04-1.22,3.28
		c-1.67,2.12-4.26,2.3-4.78,2.35c-0.84,0.07-1.72-0.02-2.65-0.32c-2.98-0.94-4.77-2.99-5.22-6.11c-0.11-0.79,0.01-1.61-0.04-2.42
		c-0.07-1.34-0.71-2.08-2.03-2.28c-2.23-0.34-4.42-0.78-6.41-1.9c-4.54-2.54-6.65-6.52-6.65-11.62c0-1.87,0.85-3.6,1.57-5.32
		c0.43-1.03,0.95-2.03,0.95-3.21c0-1.96-0.54-2.72-2.47-3.16c-2.21-0.49-4.32-1.17-6.17-2.55c-7.49-5.6-6.38-15.94,0.92-20.43
		c2.64-1.62,5.49-2.5,8.64-1.88c1.14,0.22,2.15,0.83,3.34,0.93c2.55,0.23,3.63-0.43,4.07-2.96c0.56-3.18,2.04-5.74,4.68-7.59
		c1.96-1.37,1.92-3.05,1.04-4.91c-0.54-1.15-1.08-2.28-1.39-3.52c-0.88-3.55,0.6-6.41,2.81-8.97c1.93-2.24,4.46-3.35,7.42-3.45
		c0.97-0.03,1.89,0.2,2.82,0.36c2.17,0.37,3.32-0.26,4.13-2.33c1.5-3.81,4.2-6.28,8.29-6.78c6.03-0.75,12.48,4.9,12.34,8.96
		C87.14,40.62,86.81,41.51,86.81,41.51z"/>
	<path class="st1" d="M152.85,20.18c-2.72-0.78-5.41-0.75-8.07,0.28c-1.92,0.74-1.92,0.73-3.34-0.78
		c-7.35-7.87-20.73-5.42-24.7,4.57c-0.67,1.68-1.74,2.48-3.46,2.8c-4.83,0.89-8.37,3.49-10.35,8.07c-0.66,1.52-0.97,3.13-1.24,4.76
		c-0.86,5.17,2.57,11.48,7.41,13.37c1.09,0.43,1.32,0.83,1.16,1.98c-1.02,7.25-1.92,14.51-2.87,21.76
		c-0.89,6.8-1.77,13.61-2.71,20.4c-0.26,1.89-0.19,3.87-1.1,5.68c4.66-0.55,9.3-1.09,14.08-1.66c-0.52-0.42-0.72-0.82-0.63-1.41
		c0.37-2.47,0.7-4.95,0.98-7.43c0.07-0.63,0.3-0.8,0.9-0.86c3.32-0.36,6.64-0.76,9.96-1.18c0.62-0.08,0.94,0.03,1.17,0.67
		c0.81,2.21,1.69,4.39,2.55,6.58c0.23,0.59,0.53,1.16-0.05,1.89c4.77-0.56,9.36-1.1,14.17-1.67c-0.77-0.49-0.96-1.09-1.19-1.67
		c-6.72-17.36-13.43-34.72-20.16-52.08c-0.23-0.6-0.52-1.16,0.12-1.87c-4.91,0.58-9.62,1.13-14.52,1.71
		c0.38,0.41,0.69,0.65,0.61,1.15c-0.37,2.54-0.68,5.08-1.04,7.84c-0.67-0.49-1.18-0.84-1.67-1.23c-4.21-3.28-5.9-8.97-4.09-13.83
		c1.67-4.47,5.99-8.08,11.91-7.58c1.95,0.17,2.23-0.1,2.86-2c0.54-1.67,1-3.38,1.97-4.87c4.41-6.76,13.76-7.27,19.32-1.05
		c1.24,1.38,1.5,1.43,3.15,0.6c1.89-0.95,3.82-1.84,5.95-2.05c1.37-0.14,2.77-0.03,4.16-0.03C153.77,20.43,153.3,20.31,152.85,20.18
		z M119.4,79.16c0.29-5.83,0.56-11.66,0.85-17.49c0-0.09,0.1-0.17,0.23-0.38c1.73,5.96,3.43,11.8,5.15,17.74
		c-1.9,0.22-3.75,0.43-5.59,0.65C119.63,79.73,119.37,79.7,119.4,79.16z"/>
</g>
</svg>
